# xmcd
#
# Track frame offsets:
#	150
#	18555
#	34157
#	49643
#	64045
#	82151
#	96257
#	114652
#	130253
#	145765
#	160169
#	178269
#
# Disc length: 2564 seconds
#
# Revision: 0
# Processed by: cddbd v1.5.1PL2 Copyright (c) Steve Scherf et al.
# Submitted via: audiograbber 1.83.01
#
DISCID=a60a020c
DTITLE=Keith, Toby - CB20372
DYEAR=1900
DGENRE=Karaoke
TTITLE0=Who's Your Daddy w/ Vocal
TTITLE1=It's All Good w/ Vocal
TTITLE2=Losing My Touch w/ Vocal
TTITLE3=It Works For Me w/ Vocal
TTITLE4=Ain't It Just Like You w/ Vocal
TTITLE5=Good To Go To Mexico w/ Vocal
TTITLE6=Who's Your Daddy 
TTITLE7=It's All Good
TTITLE8=Losing My Touch
TTITLE9=It Works For Me
TTITLE10=Ain't It Just Like You
TTITLE11=Good To Go To Mexico
EXTD=
EXTT0=
EXTT1=
EXTT2=
EXTT3=
EXTT4=
EXTT5=
EXTT6=
EXTT7=
EXTT8=
EXTT9=
EXTT10=
EXTT11=
PLAYORDER=
